<?xml version="1.0" encoding="iso-8859-1"?>
<!-- Generator: Adobe Illustrator 19.0.0, SVG Export Plug-In . SVG Version: 6.00 Build 0)  -->
<svg version="1.1" id="Capa_1" xmlns="http://www.w3.org/2000/svg" xmlns:xlink="http://www.w3.org/1999/xlink" x="0px" y="0px"
	 viewBox="0 0 512 512" style="enable-background:new 0 0 512 512;" xml:space="preserve">
<g>
	<g>
		<path d="M132.588,331.856c-8.284,0-15.023,6.74-15.023,15.024s6.739,15.024,15.023,15.024s15.024-6.74,15.024-15.024
			S140.872,331.856,132.588,331.856z"/>
	</g>
</g>
<g>
	<g>
		<path d="M132.588,45.048H237.66V0H27.516v512H237.66V165.096H132.588c-33.097,0-60.024-26.927-60.024-60.024
			C72.564,71.975,99.491,45.048,132.588,45.048z M132.588,301.856c24.826,0,45.024,20.198,45.024,45.024
			c0,19.568-12.552,36.252-30.024,42.445v42.623h-30v-42.623c-17.472-6.193-30.023-22.877-30.023-42.445
			C87.565,322.054,107.762,301.856,132.588,301.856z"/>
	</g>
</g>
<g>
	<g>
		<path d="M454.46,75.048H132.588c-16.582,0-30.024,13.442-30.024,30.024c0,16.582,13.442,30.024,30.024,30.024H454.46
			c16.582,0,30.024-13.442,30.024-30.024C484.484,88.49,471.042,75.048,454.46,75.048z"/>
	</g>
</g>
<g>
</g>
<g>
</g>
<g>
</g>
<g>
</g>
<g>
</g>
<g>
</g>
<g>
</g>
<g>
</g>
<g>
</g>
<g>
</g>
<g>
</g>
<g>
</g>
<g>
</g>
<g>
</g>
<g>
</g>
</svg>
